HIERARCHY
ROOT Hips
{
	OFFSET 0.00000 0.00000 0.00000
	CHANNELS 6 Xposition Yposition Zposition Zrotation Yrotation Xrotation 
	JOINT RightUpLegDummy
	{
		OFFSET 0 0 0
		CHANNELS 3 Zrotation Yrotation Xrotation
		JOINT RightUpLeg
		{
			OFFSET -3.52197 -3.41223 0.04002
			CHANNELS 3 Zrotation Yrotation Xrotation
			JOINT RightLeg
			{
				OFFSET 0.00006 -17.42390 1.60435
				CHANNELS 3 Zrotation Yrotation Xrotation
				JOINT RightFoot
				{
					OFFSET 0.06153 -16.50078 -1.63901
					CHANNELS 3 Zrotation Yrotation Xrotation
					JOINT RightToes
					{
						OFFSET 0.00298 -1.73825 3.34613
						CHANNELS 3 Zrotation Yrotation Xrotation
						End Site
						{
							OFFSET 0.00480 -0.05416 3.85043
						}
					}
				}
			}
		}
	}
	JOINT SpineDummy
	{
		OFFSET 0 0 0
		CHANNELS 3 Zrotation Yrotation Xrotation
		JOINT Spine
		{
			OFFSET 0.00000 4.68130 0.00000
			CHANNELS 3 Zrotation Yrotation Xrotation
			JOINT Spine1
			{
				OFFSET -0.00000 10.10138 0.05002
				CHANNELS 3 Zrotation Yrotation Xrotation
				JOINT HEadDummy
				{
					OFFSET 0 0 0
					CHANNELS 3 Zrotation Yrotation Xrotation
					JOINT Head
					{
						OFFSET -0.00000 3.43865 0.00438
						CHANNELS 3 Zrotation Yrotation Xrotation
						End Site
						{
							OFFSET -0.11417 5.02924 0.98962
						}
					}
				}
				JOINT LeftShoulder1Dummy
				{
					OFFSET 0 0 0
					CHANNELS 3 Zrotation Yrotation Xrotation
					JOINT LeftShoulder1
					{
						OFFSET 3.53937 -0.14262 -0.08662
						CHANNELS 3 Zrotation Yrotation Xrotation
						JOINT LeftArm
						{
							OFFSET 4.04833 -0.00133 0.12681
							CHANNELS 3 Zrotation Yrotation Xrotation
							JOINT LeftForeArm
							{
								OFFSET 10.33880 -0.01036 -0.55515
								CHANNELS 3 Zrotation Yrotation Xrotation
								JOINT LeftHand
								{
									OFFSET 8.69677 0.07543 0.40060
									CHANNELS 3 Zrotation Yrotation Xrotation
									End Site
									{
										OFFSET 5.28377 -0.21905 0.59205
									}
								}
							}
						}
					}
				}
				JOINT RightShoulderDummy
				{
					OFFSET 0 0 0
					CHANNELS 3 Zrotation Yrotation Xrotation
					JOINT RightShoulder
					{
						OFFSET -3.53937 -0.14262 -0.08660
						CHANNELS 3 Zrotation Yrotation Xrotation
						JOINT RightArm
						{
							OFFSET -4.04833 -0.00133 0.12683
							CHANNELS 3 Zrotation Yrotation Xrotation
							JOINT RightForeArm
							{
								OFFSET -10.37987 -0.01039 -0.55511
								CHANNELS 3 Zrotation Yrotation Xrotation
								JOINT RightHand
								{
									OFFSET -8.67398 0.07538 0.40058
									CHANNELS 3 Zrotation Yrotation Xrotation
									End Site
									{
										OFFSET -5.24810 -0.21916 0.59204
									}
								}
							}
						}
					}
				}
			}
		}
	}
	JOINT LeftUpLegDummy
	{
		OFFSET 0 0 0
		CHANNELS 3 Zrotation Yrotation Xrotation
		JOINT LeftUpLeg
		{
			OFFSET 3.52197 -3.41223 0.04002
			CHANNELS 3 Zrotation Yrotation Xrotation
			JOINT LeftLeg
			{
				OFFSET -0.00012 -17.42399 1.60337
				CHANNELS 3 Zrotation Yrotation Xrotation
				JOINT LeftFoot
				{
					OFFSET -0.09972 -16.50070 -1.63802
					CHANNELS 3 Zrotation Yrotation Xrotation
					JOINT LeftToes
					{
						OFFSET -0.01575 -1.73823 3.34611
						CHANNELS 3 Zrotation Yrotation Xrotation
						End Site
						{
							OFFSET 0.03150 -0.01868 3.85031
						}
					}
				}
			}
		}
	}
}
MOTION
Frames: 12
Frame Time: 0.033333
38.8050 39.8145 85.6419 -179.0730 1.6066 178.3330 0.0000 0.0000 0.0000 2.4093 -1.2575 1.1168 -0.9302 -3.2707 4.8961 -2.8857 0.1700 -4.2956 0.0000 -0.0000 -0.0000 0.0000 0.0000 0.0000 -0.3626 -0.7379 -0.4067 4.0417 -1.6065 2.7194 -0.0000 0.0000 -0.0000 -1.4955 5.2548 -6.9689 -0.0000 0.0000 -0.0000 -34.0129 -2.6361 2.4586 -45.6789 -14.6372 -16.8508 -10.6712 5.0870 49.4095 15.2851 -3.9890 -1.2058 -0.0000 0.0000 -0.0000 34.7963 5.1049 3.5138 40.6318 5.6101 -16.7597 10.6256 -0.1263 24.4849 -12.2200 0.9413 -0.6582 0.0000 0.0000 0.0000 1.0210 1.2105 1.1558 0.7023 0.0950 6.2698 4.0493 -0.1803 -5.3186 0.0000 0.0000 -0.0000
38.8169 39.8145 85.6419 -179.0000 1.9221 178.3340 0.0000 0.0000 0.0000 2.5499 -1.1133 1.1442 -0.9815 -3.0981 4.8145 -2.8717 0.1689 -4.2210 0.0000 -0.0000 -0.0000 0.0000 0.0000 0.0000 -0.3789 -0.5312 -0.4120 4.2778 -1.4380 2.6199 -0.0000 0.0000 -0.0000 -1.8577 5.0300 -6.9289 -0.0000 0.0000 -0.0000 -34.3572 -2.6987 2.5053 -45.3992 -14.5521 -16.8229 -10.7465 5.0873 49.3682 15.2299 -3.9538 -1.1969 -0.0000 0.0000 -0.0000 34.6372 5.0884 3.4931 40.6396 5.4432 -16.8263 10.6041 -0.1894 24.5034 -12.3266 0.6903 -0.6392 0.0000 0.0000 0.0000 1.1837 1.3877 1.1924 0.6087 0.2423 6.3112 4.0020 -0.1773 -5.4015 0.0000 0.0000 -0.0000
38.8294 39.8145 85.6449 -178.8860 2.3315 178.3500 0.0000 0.0000 0.0000 2.7504 -0.9200 1.1629 -1.0443 -2.8914 4.6823 -2.8985 0.1702 -4.1057 0.0000 -0.0000 -0.0000 0.0000 0.0000 0.0000 -0.2838 -0.3145 -0.3934 4.4501 -1.2481 2.4243 -0.0000 0.0000 -0.0000 -2.1875 4.8954 -6.8191 -0.0000 0.0000 -0.0000 -34.7291 -2.7364 2.5440 -45.0930 -14.3384 -16.7973 -10.8377 5.0894 49.2582 15.1614 -3.8176 -1.1744 -0.0000 0.0000 -0.0000 34.5048 5.0796 3.4781 40.6264 5.2522 -16.9284 10.5698 -0.3279 24.6305 -12.4760 0.4904 -0.6271 0.0000 0.0000 0.0000 1.4315 1.6523 1.2175 0.4459 0.3750 6.3472 3.9610 -0.1746 -5.4896 0.0000 0.0000 -0.0000
38.8374 39.8145 85.6514 -178.8340 2.6703 178.3350 0.0000 0.0000 0.0000 2.8603 -0.7989 1.1819 -1.0831 -2.6841 4.6175 -2.9482 0.1732 -4.0356 0.0000 -0.0000 -0.0000 0.0000 0.0000 0.0000 -0.3224 -0.1593 -0.3525 4.6743 -1.1288 2.3295 -0.0000 0.0000 -0.0000 -2.2235 5.0206 -6.7563 -0.0000 0.0000 -0.0000 -34.9550 -2.7279 2.5549 -44.9364 -14.1811 -16.8308 -10.8605 5.0900 49.2295 15.1724 -3.7473 -1.1666 -0.0000 0.0000 -0.0000 34.3600 5.0561 3.4560 40.6628 5.2263 -17.0048 10.5396 -0.4551 24.8264 -12.5720 0.5517 -0.6382 0.0000 0.0000 0.0000 1.5888 1.8428 1.3120 0.3120 0.4879 6.2748 3.9380 -0.1732 -5.5064 0.0000 0.0000 -0.0000
38.8548 39.8145 85.6517 -178.8800 3.2219 178.1710 0.0000 0.0000 0.0000 2.8848 -0.7105 1.2972 -1.1210 -2.2283 4.6812 -2.9762 0.1750 -4.0383 0.0000 -0.0000 -0.0000 0.0000 0.0000 0.0000 -0.4838 0.0924 -0.1845 4.8540 -0.8969 2.3194 -0.0000 0.0000 -0.0000 -2.0181 5.2583 -6.7674 -0.0000 0.0000 -0.0000 -35.0027 -2.6974 2.5454 -44.8853 -14.1180 -16.9250 -10.8270 5.0870 49.3427 15.2038 -3.8154 -1.1776 -0.0000 0.0000 -0.0000 34.2570 5.0260 3.4350 40.7412 5.2447 -17.0412 10.5324 -0.4917 24.8448 -12.6375 0.6336 -0.6499 0.0000 0.0000 0.0000 1.6473 1.9989 1.6810 0.2330 0.8771 6.0533 3.9402 -0.1733 -5.4934 0.0000 0.0000 -0.0000
38.8480 39.8145 85.6657 -178.8690 3.1912 178.1450 0.0000 0.0000 0.0000 2.8753 -0.7321 1.3163 -1.1015 -2.2311 4.6560 -2.9519 0.1737 -4.0131 0.0000 -0.0000 -0.0000 0.0000 0.0000 0.0000 -0.5382 0.0671 -0.2310 4.9612 -0.9479 2.4425 -0.0000 0.0000 -0.0000 -1.8691 5.4416 -6.9189 -0.0000 0.0000 -0.0000 -35.0459 -2.6950 2.5472 -44.8364 -14.2171 -17.0383 -10.7694 5.0852 49.4281 15.1379 -3.8404 -1.1754 -0.0000 0.0000 -0.0000 34.0662 4.9798 3.4000 40.9311 5.3458 -17.1267 10.5064 -0.5244 24.6650 -12.6202 0.6794 -0.6536 0.0000 0.0000 0.0000 1.6534 2.0065 1.6820 0.2335 0.8990 6.0670 4.0434 -0.1799 -5.5056 0.0000 0.0000 -0.0000
38.8464 39.8145 85.6874 -178.8390 3.0932 178.1260 0.0000 0.0000 0.0000 2.8928 -0.7536 1.3443 -1.0804 -2.3146 4.5836 -2.9892 0.1764 -3.9695 0.0000 -0.0000 -0.0000 0.0000 0.0000 0.0000 -0.6460 0.0045 -0.4070 5.1529 -1.0613 2.7714 -0.0000 0.0000 -0.0000 -1.8614 5.5788 -7.2146 -0.0000 0.0000 -0.0000 -35.1134 -2.7181 2.5609 -44.7994 -14.3955 -17.1146 -10.7163 5.0885 49.3394 15.0222 -3.7235 -1.1517 -0.0000 0.0000 -0.0000 33.8395 4.9379 3.3639 41.1517 5.6170 -17.2395 10.4563 -0.6603 24.5933 -12.4139 0.9319 -0.6678 0.0000 0.0000 0.0000 1.6885 2.0260 1.6257 0.2201 0.8319 6.1384 4.1398 -0.1861 -5.5225 0.0000 0.0000 -0.0000
38.8465 39.8173 85.7111 -178.8220 2.9658 178.1200 0.0000 0.0000 0.0000 2.8914 -0.7990 1.3782 -1.0382 -2.4093 4.4623 -3.0881 0.1831 -3.9019 0.0000 -0.0000 -0.0000 0.0000 0.0000 0.0000 -0.7498 -0.1059 -0.5586 5.2758 -1.2092 3.0696 -0.0000 0.0000 -0.0000 -1.8983 5.7162 -7.5533 -0.0000 0.0000 -0.0000 -35.0763 -2.7185 2.5588 -44.8261 -14.4730 -17.0833 -10.7227 5.0943 49.1398 15.0085 -3.6507 -1.1417 -0.0000 0.0000 -0.0000 33.7650 4.9330 3.3556 41.2594 5.9392 -17.2319 10.4375 -0.8144 24.8134 -12.1657 1.2849 -0.6888 0.0000 0.0000 0.0000 1.7090 2.0221 1.5835 0.2047 0.6933 6.1264 4.1564 -0.1872 -5.4798 0.0000 0.0000 -0.0000
38.8460 39.8213 85.7273 -178.8330 2.9337 178.1040 0.0000 0.0000 0.0000 2.8596 -0.8476 1.4115 -0.9909 -2.3967 4.3768 -3.1507 0.1876 -3.8385 0.0000 -0.0000 -0.0000 0.0000 0.0000 0.0000 -0.7724 -0.1856 -0.5667 5.2222 -1.2832 3.1606 -0.0000 0.0000 -0.0000 -1.9876 5.7708 -7.8203 -0.0000 0.0000 -0.0000 -34.9207 -2.6806 2.5334 -44.8868 -14.3897 -16.9345 -10.8165 5.0986 48.9552 15.1075 -3.7405 -1.1606 -0.0000 0.0000 -0.0000 33.8589 4.9568 3.3731 41.2694 6.0718 -17.0593 10.4759 -0.7838 25.0860 -12.1690 1.2582 -0.6862 0.0000 0.0000 0.0000 1.6919 1.9956 1.6272 0.2127 0.6447 6.0097 4.1224 -0.1850 -5.3969 0.0000 0.0000 -0.0000
38.8451 39.8230 85.7370 -178.8390 3.0084 178.0800 0.0000 0.0000 0.0000 2.8481 -0.8518 1.4149 -0.9764 -2.3115 4.3799 -3.1149 0.1860 -3.8053 0.0000 -0.0000 -0.0000 0.0000 0.0000 0.0000 -0.7162 -0.1862 -0.4830 5.1085 -1.2600 3.0965 -0.0000 0.0000 -0.0000 -2.1936 5.6536 -7.9793 -0.0000 0.0000 -0.0000 -34.8141 -2.6489 2.5137 -44.9148 -14.2325 -16.7881 -10.9204 5.1014 48.8169 15.1840 -3.7980 -1.1738 -0.0000 0.0000 -0.0000 33.9229 4.9648 3.3817 41.3347 5.9690 -16.8787 10.5183 -0.5418 25.1430 -12.3455 0.8444 -0.6555 0.0000 0.0000 0.0000 1.6756 1.9829 1.6821 0.2386 0.7229 5.9404 4.1148 -0.1845 -5.3539 0.0000 0.0000 -0.0000
38.8441 39.8223 85.7473 -178.8240 3.0968 178.0650 0.0000 0.0000 0.0000 2.8741 -0.8163 1.3913 -0.9917 -2.2526 4.4164 -3.0376 0.1818 -3.7940 0.0000 -0.0000 -0.0000 0.0000 0.0000 0.0000 -0.6814 -0.1399 -0.4086 5.1187 -1.2136 3.0293 -0.0000 0.0000 -0.0000 -2.4339 5.4842 -8.0631 -0.0000 0.0000 -0.0000 -34.8898 -2.6695 2.5269 -44.8743 -14.0924 -16.7694 -10.9360 5.1042 48.7133 15.1559 -3.6715 -1.1559 -0.0000 0.0000 -0.0000 33.8448 4.9406 3.3654 41.4799 5.8383 -16.8372 10.5153 -0.3189 25.0659 -12.3335 0.5949 -0.6302 0.0000 0.0000 0.0000 1.6862 1.9934 1.6742 0.2587 0.8163 5.9825 4.1318 -0.1856 -5.3669 0.0000 0.0000 -0.0000
38.8435 39.8218 85.7584 -178.8180 3.1456 178.0530 0.0000 0.0000 0.0000 2.8806 -0.8089 1.3872 -0.9868 -2.2126 4.4081 -3.0167 0.1813 -3.7816 0.0000 -0.0000 -0.0000 0.0000 0.0000 0.0000 -0.6985 -0.0958 -0.3721 5.1973 -1.1842 3.0291 -0.0000 0.0000 -0.0000 -2.5548 5.4216 -8.1107 -0.0000 0.0000 -0.0000 -35.0443 -2.7240 2.5589 -44.7997 -14.0110 -16.8434 -10.8759 5.1049 48.7146 15.0749 -3.5521 -1.1348 -0.0000 0.0000 -0.0000 33.7690 4.9203 3.3509 41.5478 5.8228 -16.8832 10.4960 -0.2830 25.0161 -12.1320 0.6725 -0.6273 0.0000 0.0000 0.0000 1.6920 1.9990 1.6666 0.2649 0.8590 6.0029 4.1171 -0.1847 -5.3696 0.0000 0.0000 -0.0000
